<svg width="45" height="45" viewBox="0 0 45 45" fill="none" xmlns="http://www.w3.org/2000/svg">
<path fill-rule="evenodd" clip-rule="evenodd" d="M5.625 5.625C4.58947 5.625 3.75 6.46447 3.75 7.5C3.75 8.53553 4.58947 9.375 5.625 9.375V7.5L5.62503 9.375H5.6251H5.6254H5.62562H5.6259H5.62622H5.62659H5.62857H5.63132H5.63299H5.63389H5.63485H5.63913H5.64417H5.64554H5.64696H5.64995H5.72205H5.99121H6.91406H7.87832L12.2341 28.5405C12.4587 29.5287 13.4256 30.1556 14.4132 29.9669C14.5274 29.9886 14.6452 30 14.7656 30H33.75C34.5316 30 35.2312 29.5152 35.5056 28.7834L41.1306 13.7834C41.3465 13.2076 41.2664 12.5625 40.9161 12.057C40.5658 11.5516 39.99 11.25 39.375 11.25H12.1501L11.2034 7.08446C11.0094 6.23079 10.2504 5.625 9.375 5.625H6.91406H5.99121H5.72205H5.7106H5.69983H5.69724H5.6947H5.68975H5.68036H5.66371H5.66183H5.66H5.65821H5.65647H5.65477H5.65312H5.64995H5.63913H5.63485H5.63389H5.63299H5.63132H5.62659H5.6259H5.62562H5.6254H5.6251H5.62503L5.625 7.5V5.625ZM13.0024 15L15.5592 26.25H32.4506L36.6694 15H13.0024ZM18.75 31.875C16.6789 31.875 15 33.5539 15 35.625C15 37.6961 16.6789 39.375 18.75 39.375C20.8211 39.375 22.5 37.6961 22.5 35.625C22.5 33.5539 20.8211 31.875 18.75 31.875ZM26.25 35.625C26.25 33.5539 27.9289 31.875 30 31.875C32.0711 31.875 33.75 33.5539 33.75 35.625C33.75 37.6961 32.0711 39.375 30 39.375C27.9289 39.375 26.25 37.6961 26.25 35.625Z" fill="#1C402F"/>
</svg>
