<svg width="45" height="45" viewBox="0 0 45 45" fill="none" xmlns="http://www.w3.org/2000/svg">
<path fill-rule="evenodd" clip-rule="evenodd" d="M20.5728 37.9044L22.5001 34.6875L24.4756 37.8749C23.2827 38.6143 21.7768 38.6257 20.5728 37.9044ZM19.6729 12.2015C18.2235 11.2171 16.3299 10.3125 14.2652 10.3125C9.5302 10.3125 6.75094 13.7946 7.67736 18.5742C9.26348 26.7573 22.5001 34.6875 22.5001 34.6875C20.5728 37.9044 20.5736 37.9048 20.5728 37.9044L20.5653 37.8999L20.553 37.8924L20.5141 37.8689C20.4819 37.8493 20.4374 37.8221 20.3814 37.7875C20.2692 37.7183 20.1106 37.6193 19.9117 37.4924C19.5142 37.2389 18.9539 36.8729 18.2807 36.4094C16.9394 35.486 15.1239 34.1584 13.2435 32.5471C11.3736 30.9449 9.36806 29.0015 7.69544 26.8374C6.0463 24.7036 4.5475 22.1338 3.99588 19.2878C3.36646 16.0405 3.93229 12.8004 5.91659 10.3127C7.91367 7.80887 10.9541 6.5625 14.2652 6.5625C17.6846 6.5625 20.5269 8.17308 22.2903 9.45866C22.3613 9.51043 22.4312 9.56217 22.5001 9.61381C22.5689 9.56217 22.6389 9.51043 22.7099 9.45866C24.4732 8.17308 27.3156 6.5625 30.7349 6.5625C38.132 6.5625 42.3993 13.4151 40.9717 19.439C40.3171 22.201 38.8006 24.7163 37.1483 26.828C35.4731 28.969 33.493 30.9029 31.6507 32.5051C29.799 34.1154 28.0219 35.4461 26.7106 36.3734C26.0527 36.8386 25.5062 37.2064 25.1188 37.4612C24.925 37.5887 24.7705 37.6881 24.6615 37.7577C24.6338 37.7753 24.6091 37.791 24.5874 37.8048C24.5662 37.8182 24.5479 37.8297 24.5325 37.8394L24.4947 37.863L24.4828 37.8705L24.4756 37.8749C24.4749 37.8754 24.4756 37.8749 22.5001 34.6875C22.5001 34.6875 35.3987 26.6931 37.3228 18.5742C38.2492 14.6652 35.47 10.3125 30.7349 10.3125C28.6702 10.3125 26.7766 11.2171 25.3272 12.2015C23.5972 13.3764 22.5001 14.6652 22.5001 14.6652C22.5001 14.6652 21.4029 13.3764 19.6729 12.2015Z" fill="#1C402F"/>
</svg>
