<svg width="45" height="45" viewBox="0 0 45 45" fill="none" xmlns="http://www.w3.org/2000/svg">
<path fill-rule="evenodd" clip-rule="evenodd" d="M22.5 41.25C12.1447 41.25 3.75 32.8553 3.75 22.5C3.75 12.1447 12.1447 3.75 22.5 3.75C32.8553 3.75 41.25 12.1447 41.25 22.5C41.25 32.8553 32.8553 41.25 22.5 41.25ZM22.5 7.5C14.2157 7.5 7.5 14.2157 7.5 22.5C7.5 27.237 9.69577 31.4611 13.125 34.2101V33.4821C13.125 30.3234 14.7331 27.5403 17.1753 25.9068C15.8306 24.5513 15 22.6852 15 20.625C15 16.4829 18.3579 13.125 22.5 13.125C26.6421 13.125 30 16.4829 30 20.625C30 22.6852 29.1694 24.5513 27.8247 25.9068C30.2669 27.5403 31.875 30.3234 31.875 33.4821V34.2101C35.3042 31.4611 37.5 27.237 37.5 22.5C37.5 14.2157 30.7843 7.5 22.5 7.5ZM28.125 36.4097V33.4821C28.125 30.5235 25.7265 28.125 22.7679 28.125H22.5H22.2321C19.2735 28.125 16.875 30.5235 16.875 33.4821V36.4097C18.6121 37.1128 20.5108 37.5 22.5 37.5C24.4892 37.5 26.3879 37.1128 28.125 36.4097ZM22.5 24.375C24.5711 24.375 26.25 22.6961 26.25 20.625C26.25 18.5539 24.5711 16.875 22.5 16.875C20.4289 16.875 18.75 18.5539 18.75 20.625C18.75 22.6961 20.4289 24.375 22.5 24.375Z" fill="#1C402F"/>
</svg>
